<svg width="97" height="35" viewBox="0 0 97 35" fill="none" xmlns="http://www.w3.org/2000/svg">
<path d="M22.4512 26H21.7305C20.9336 24.9219 18.6484 22.0039 14.875 17.2461C11.1016 12.4766 8.40625 9.02539 6.78906 6.89258C6.08594 5.97852 5.41211 4.90625 4.76758 3.67578L4.66211 3.74609V23.7324C4.66211 24.1777 4.80273 24.5234 5.08398 24.7695C5.37695 25.0156 5.69336 25.1855 6.0332 25.2793C6.38477 25.3613 6.86523 25.4551 7.47461 25.5605C8.08398 25.666 8.44141 25.7305 8.54688 25.7539V26.1055C6.33203 25.9648 4.55664 25.9648 3.2207 26.1055C3.15039 25.7891 3.11523 25.4785 3.11523 25.1738V4.94141C3.08008 4.10938 2.93359 3.36523 2.67578 2.70898C2.33594 1.79492 1.55664 1.38477 0.337891 1.47852V1.12695C1.97852 0.716797 3.58984 0.511719 5.17188 0.511719L18.4082 17.4395C19.0293 18.2246 19.5215 18.9336 19.8848 19.5664C20.2598 20.1875 20.623 20.9668 20.9746 21.9043V3.60547C20.9746 2.78516 20.6641 2.20508 20.043 1.86523C19.4336 1.51367 18.4727 1.38477 17.1602 1.47852L17.0723 1.12695C18.5957 0.751953 20.2891 0.546875 22.1523 0.511719C22.3516 0.816406 22.4512 1.12695 22.4512 1.44336V26ZM41.5234 24.0137C41.5234 24.2129 41.5645 24.4004 41.6465 24.5762C41.7402 24.7402 41.8457 24.8809 41.9629 24.998C42.0918 25.1035 42.2734 25.209 42.5078 25.3145C42.7422 25.4199 42.9473 25.502 43.123 25.5605C43.2988 25.6191 43.5449 25.6953 43.8613 25.7891L43.7207 26.2109C42.9707 26.0703 42.2266 26 41.4883 26C40.5625 26 39.6484 26.0938 38.7461 26.2812L38.6406 26.1055C38.8867 25.7656 39.0098 25.1445 39.0098 24.2422V23.082C38.4238 24.1719 37.5098 25.0508 36.2676 25.7188C35.0371 26.3867 33.7891 26.7207 32.5234 26.7207C31.1758 26.7207 30.0859 26.375 29.2539 25.6836C28.4336 24.9805 28.0234 23.9434 28.0234 22.5723C28.0234 21.6816 28.2051 20.8906 28.5684 20.1992C28.9434 19.4961 29.4355 18.9043 30.0449 18.4238C30.666 17.9316 31.457 17.498 32.418 17.123C33.3906 16.748 34.3867 16.4434 35.4062 16.209C36.4375 15.9746 37.6387 15.7578 39.0098 15.5586V13.9414C39.0098 10.7188 37.7383 9.10742 35.1953 9.10742C34.375 9.10742 33.3672 9.3125 32.1719 9.72266C30.9883 10.1211 29.9922 10.6484 29.1836 11.3047L28.4629 10.4785C29.4824 9.66992 30.6895 9.00195 32.084 8.47461C33.4902 7.94727 34.8027 7.68359 36.0215 7.68359C36.5605 7.68359 37.0703 7.73633 37.5508 7.8418C38.043 7.93555 38.5352 8.11719 39.0273 8.38672C39.5312 8.64453 39.959 8.97852 40.3105 9.38867C40.6738 9.78711 40.9668 10.3262 41.1895 11.0059C41.4121 11.6738 41.5234 12.4355 41.5234 13.291V24.0137ZM33.3496 25.3848C34.3691 25.3848 35.4355 25.0508 36.5488 24.3828C37.6621 23.7031 38.4824 22.8594 39.0098 21.8516V16.4902C36.0098 16.9238 33.8652 17.5918 32.5762 18.4941C31.2988 19.3848 30.6602 20.6855 30.6602 22.3965C30.6602 23.4395 30.8828 24.2012 31.3281 24.6816C31.7734 25.1504 32.4473 25.3848 33.3496 25.3848ZM63.707 8.24609L56.2188 27.6523C55.9023 28.4844 55.627 29.1699 55.3926 29.709C55.1699 30.248 54.9062 30.8047 54.6016 31.3789C54.2969 31.9648 53.998 32.4395 53.7051 32.8027C53.4238 33.166 53.0898 33.4941 52.7031 33.7871C52.3281 34.0918 51.918 34.3262 51.4727 34.4902C49.6094 34.5605 47.9746 33.9277 46.5684 32.5918C47.2012 31.8184 48.0801 31.1562 49.2051 30.6055L49.416 30.8164C49.8848 31.9062 50.6406 32.6914 51.6836 33.1719C52.1875 32.7617 52.7031 32.082 53.2305 31.1328C53.7695 30.1953 54.4316 28.666 55.2168 26.5449L48.959 11.7441C48.6309 10.9121 48.2617 10.3145 47.8516 9.95117C47.4531 9.58789 47.0371 9.41211 46.6035 9.42383C46.1816 9.43555 45.6953 9.47656 45.1445 9.54688L44.9512 9.19531C46.9199 8.21094 48.6484 7.71875 50.1367 7.71875L55.4277 20.6035C55.6621 21.166 55.9375 22.2441 56.2539 23.8379H56.5527C57.1152 21.9746 57.4023 21.0254 57.4141 20.9902L61.334 9.75781C61.4863 9.33594 61.3105 9.03711 60.8066 8.86133C60.3027 8.67383 59.541 8.62695 58.5215 8.7207L58.416 8.28125C59.4121 8.08203 61.1055 7.95312 63.4961 7.89453L63.707 8.24609ZM78.8594 24.0137C78.8594 24.2129 78.9004 24.4004 78.9824 24.5762C79.0762 24.7402 79.1816 24.8809 79.2988 24.998C79.4277 25.1035 79.6094 25.209 79.8438 25.3145C80.0781 25.4199 80.2832 25.502 80.459 25.5605C80.6348 25.6191 80.8809 25.6953 81.1973 25.7891L81.0566 26.2109C80.3066 26.0703 79.5625 26 78.8242 26C77.8984 26 76.9844 26.0938 76.082 26.2812L75.9766 26.1055C76.2227 25.7656 76.3457 25.1445 76.3457 24.2422V23.082C75.7598 24.1719 74.8457 25.0508 73.6035 25.7188C72.373 26.3867 71.125 26.7207 69.8594 26.7207C68.5117 26.7207 67.4219 26.375 66.5898 25.6836C65.7695 24.9805 65.3594 23.9434 65.3594 22.5723C65.3594 21.6816 65.541 20.8906 65.9043 20.1992C66.2793 19.4961 66.7715 18.9043 67.3809 18.4238C68.002 17.9316 68.793 17.498 69.7539 17.123C70.7266 16.748 71.7227 16.4434 72.7422 16.209C73.7734 15.9746 74.9746 15.7578 76.3457 15.5586V13.9414C76.3457 10.7188 75.0742 9.10742 72.5312 9.10742C71.7109 9.10742 70.7031 9.3125 69.5078 9.72266C68.3242 10.1211 67.3281 10.6484 66.5195 11.3047L65.7988 10.4785C66.8184 9.66992 68.0254 9.00195 69.4199 8.47461C70.8262 7.94727 72.1387 7.68359 73.3574 7.68359C73.8965 7.68359 74.4062 7.73633 74.8867 7.8418C75.3789 7.93555 75.8711 8.11719 76.3633 8.38672C76.8672 8.64453 77.2949 8.97852 77.6465 9.38867C78.0098 9.78711 78.3027 10.3262 78.5254 11.0059C78.748 11.6738 78.8594 12.4355 78.8594 13.291V24.0137ZM70.6855 25.3848C71.7051 25.3848 72.7715 25.0508 73.8848 24.3828C74.998 23.7031 75.8184 22.8594 76.3457 21.8516V16.4902C73.3457 16.9238 71.2012 17.5918 69.9121 18.4941C68.6348 19.3848 67.9961 20.6855 67.9961 22.3965C67.9961 23.4395 68.2188 24.2012 68.6641 24.6816C69.1094 25.1504 69.7832 25.3848 70.6855 25.3848ZM96.7363 21.9043C96.7363 22.748 96.5664 23.4746 96.2266 24.084C95.8867 24.6934 95.4297 25.1973 94.8555 25.5957C94.293 25.9824 93.6309 26.2637 92.8691 26.4395C92.1191 26.627 91.3281 26.7207 90.4961 26.7207C88.4805 26.7207 86.5879 26.2988 84.8184 25.4551C85.041 24.6816 85.2637 23.9668 85.4863 23.3105C85.709 22.6426 85.9375 22.0273 86.1719 21.4648L86.6816 21.6406C86.5762 22.1562 86.5234 22.6543 86.5234 23.1348C86.5234 23.6035 86.541 24.0312 86.5762 24.418C86.9395 24.6055 87.2793 24.7695 87.5957 24.9102C87.9121 25.0391 88.2285 25.1504 88.5449 25.2441C88.8613 25.3262 89.2012 25.3906 89.5645 25.4375C89.9277 25.4727 90.3496 25.4902 90.8301 25.4902C91.5449 25.4902 92.1367 25.4434 92.6055 25.3496C93.0742 25.2559 93.4375 25.0977 93.6953 24.875C93.9648 24.6406 94.1523 24.3359 94.2578 23.9609C94.3633 23.5742 94.416 23.0996 94.416 22.5371C94.416 22.1035 94.3398 21.6992 94.1875 21.3242C94.0469 20.9375 93.7949 20.5566 93.4316 20.1816C93.0801 19.8066 92.6055 19.4199 92.0078 19.0215C91.4219 18.6113 90.6895 18.166 89.8105 17.6855C88.3926 16.8418 87.3203 16.0039 86.5938 15.1719C85.8672 14.3281 85.5039 13.4258 85.5039 12.4648C85.5039 11.7031 85.6621 11.0293 85.9785 10.4434C86.2949 9.8457 86.7227 9.34766 87.2617 8.94922C87.8125 8.53906 88.4512 8.23438 89.1777 8.03516C89.9043 7.82422 90.6719 7.71875 91.4805 7.71875C91.8906 7.71875 92.3184 7.74805 92.7637 7.80664C93.2207 7.86523 93.6602 7.95312 94.082 8.07031C94.5039 8.17578 94.8965 8.31055 95.2598 8.47461C95.6348 8.62695 95.957 8.80273 96.2266 9.00195C95.8516 10.5371 95.3945 11.8848 94.8555 13.0449L94.3457 12.8516C94.3691 12.5117 94.3867 12.0957 94.3984 11.6035C94.4102 11.0996 94.416 10.5078 94.416 9.82812C93.6543 9.23047 92.5996 8.93164 91.252 8.93164C90.584 8.93164 90.0156 8.97266 89.5469 9.05469C89.0898 9.13672 88.7207 9.27734 88.4395 9.47656C88.1582 9.67578 87.9531 9.95117 87.8242 10.3027C87.707 10.6426 87.6484 11.0762 87.6484 11.6035C87.6484 11.9902 87.7012 12.3535 87.8066 12.6934C87.9121 13.0215 88.0996 13.3496 88.3691 13.6777C88.6387 13.9941 89.002 14.3223 89.459 14.6621C89.9277 14.9902 90.5254 15.3477 91.252 15.7344C92.3887 16.3555 93.3086 16.9004 94.0117 17.3691C94.7266 17.8379 95.2832 18.3008 95.6816 18.7578C96.0918 19.2031 96.3672 19.6719 96.5078 20.1641C96.6602 20.6562 96.7363 21.2363 96.7363 21.9043Z" fill="black"/>
</svg>
